<svg xmlns="http://www.w3.org/2000/svg" viewBox="0 0 1502 494" role="img" aria-labelledby="title desc">
  <title id="title">Miami Hurricanes Basketball Banner</title>
  <desc id="desc">Green Miami Hurricanes basketball banner with orange and white typography and a U mark.</desc>
  <defs>
    <radialGradient id="leftGlow" cx="10%" cy="50%" r="60%">
      <stop offset="0%" stop-color="#1f7a4a"/>
      <stop offset="55%" stop-color="#0f5132"/>
      <stop offset="100%" stop-color="#0a2f22"/>
    </radialGradient>
    <linearGradient id="orangePanel" x1="0%" x2="100%">
      <stop offset="0%" stop-color="#f97316"/>
      <stop offset="100%" stop-color="#ea580c"/>
    </linearGradient>
    <pattern id="dots" width="12" height="12" patternUnits="userSpaceOnUse">
      <circle cx="2" cy="2" r="1.2" fill="#ffffff" opacity="0.08"/>
    </pattern>
    <filter id="softShadow" x="-20%" y="-20%" width="140%" height="140%">
      <feDropShadow dx="0" dy="10" stdDeviation="10" flood-color="#000000" flood-opacity="0.35"/>
    </filter>
  </defs>

  <rect width="1502" height="494" fill="url(#leftGlow)"/>
  <rect width="1502" height="494" fill="url(#dots)"/>

  <g opacity="0.25" fill="none" stroke="#ffffff" stroke-width="1.2">
    <circle cx="104" cy="250" r="22"/>
    <circle cx="104" cy="250" r="42"/>
    <circle cx="104" cy="250" r="64"/>
    <circle cx="104" cy="250" r="86"/>
    <circle cx="104" cy="250" r="108"/>
    <circle cx="104" cy="250" r="130"/>
    <circle cx="104" cy="250" r="152"/>
    <circle cx="104" cy="250" r="174"/>
    <circle cx="104" cy="250" r="196"/>
    <circle cx="104" cy="250" r="218"/>
    <circle cx="104" cy="250" r="240"/>
    <circle cx="104" cy="250" r="262"/>
    <circle cx="104" cy="250" r="284"/>
    <circle cx="104" cy="250" r="306"/>
    <circle cx="104" cy="250" r="328"/>
    <circle cx="104" cy="250" r="350"/>
    <circle cx="104" cy="250" r="372"/>
    <circle cx="104" cy="250" r="394"/>
    <circle cx="104" cy="250" r="416"/>
    <circle cx="104" cy="250" r="438"/>
  </g>

  <path d="M930 0c38 142 54 306-62 494h-80c122-184 111-356 66-494z" fill="#ffffff" opacity="0.08"/>
  <path d="M1002 0c20 166 10 329-82 494h-38c92-158 99-327 78-494z" fill="#ffffff" opacity="0.07"/>

  <g transform="translate(377 185)">
    <text x="0" y="0" font-family="Arial Black, Impact, sans-serif" font-size="70" font-weight="900" letter-spacing="1">
      <tspan fill="#f97316">MIAMI</tspan><tspan fill="#ffffff">HURRICANES</tspan>
    </text>
    <text x="245" y="66" font-family="Arial, Helvetica, sans-serif" font-size="43" font-weight="900" letter-spacing="34" fill="#f97316">BASKETBALL</text>
    <text x="532" y="112" font-family="Arial, Helvetica, sans-serif" font-size="10" font-weight="700" letter-spacing="12" fill="#ffffff" opacity="0.95">MIAMI HURRICANES</text>
    <text x="575" y="132" font-family="Arial, Helvetica, sans-serif" font-size="9" font-weight="700" letter-spacing="9" fill="#ffffff" opacity="0.8">EST. APRIL 1925</text>
    <text x="618" y="151" font-family="Arial, Helvetica, sans-serif" font-size="9" font-weight="700" letter-spacing="7" fill="#ffffff" opacity="0.8">CORAL GABLES, FL</text>
  </g>

  <g transform="translate(1198 158)" filter="url(#softShadow)">
    <rect x="0" y="0" width="318" height="176" rx="2" fill="url(#orangePanel)"/>
    <path d="M43 36h54v89c0 23 21 37 58 37h26v-40h-18c-8 0-13-4-13-12V36h54v89c0 23-8 42-25 56-17 14-41 21-72 21-65 0-64-32-64-71z" fill="#ffffff"/>
    <path d="M183 36h54v89c0 23-8 42-25 56-17 14-41 21-72 21h-23v-40h28c25 0 38-12 38-37z" fill="#005030"/>
    <path d="M43 36h54v89c0 23 21 37 58 37h26v-40h-18c-8 0-13-4-13-12V36h54v89c0 23-8 42-25 56-17 14-41 21-72 21-65 0-64-32-64-71z" fill="none" stroke="#ffffff" stroke-width="7" stroke-linejoin="round"/>
  </g>
</svg>
